<?xml version="1.0" encoding="UTF-8" standalone="no"?>
<!DOCTYPE svg PUBLIC "-//W3C//DTD SVG 1.1//EN"
 "http://www.w3.org/Graphics/SVG/1.1/DTD/svg11.dtd">
<!-- Generated by graphviz version 12.2.1 (20241206.2353)
 -->
<!-- Pages: 1 -->
<svg width="716pt" height="332pt"
 viewBox="0.00 0.00 716.46 332.00" xmlns="http://www.w3.org/2000/svg" xmlns:xlink="http://www.w3.org/1999/xlink">
<g id="graph0" class="graph" transform="scale(1 1) rotate(0) translate(4 328)">
<polygon fill="white" stroke="none" points="-4,4 -4,-328 712.46,-328 712.46,4 -4,4"/>
<!-- 872046531 -->
<g id="node1" class="node">
<title>872046531</title>
<polygon fill="none" stroke="red" points="537.35,-324 438.1,-324 438.1,-288 537.35,-288 537.35,-324"/>
<text text-anchor="middle" x="487.73" y="-300.95" font-family="Times New Roman,serif" font-size="14.00">872046531(17)</text>
</g>
<!-- 872406531 -->
<g id="node2" class="node">
<title>872406531</title>
<ellipse fill="none" stroke="black" cx="258.73" cy="-234" rx="67.73" ry="18"/>
<text text-anchor="middle" x="258.73" y="-228.95" font-family="Times New Roman,serif" font-size="14.00">872406531(16)</text>
</g>
<!-- 872046531&#45;&gt;872406531 -->
<g id="edge1" class="edge">
<title>872046531&#45;&gt;872406531</title>
<path fill="none" stroke="orange" d="M437.76,-289.72C400.87,-278.45 350.7,-263.11 312.86,-251.55"/>
<polygon fill="orange" stroke="orange" points="314.07,-248.26 303.49,-248.68 312.03,-254.95 314.07,-248.26"/>
</g>
<!-- 072846531 -->
<g id="node3" class="node">
<title>072846531</title>
<ellipse fill="none" stroke="black" cx="487.73" cy="-234" rx="67.73" ry="18"/>
<text text-anchor="middle" x="487.73" y="-228.95" font-family="Times New Roman,serif" font-size="14.00">072846531(16)</text>
</g>
<!-- 872046531&#45;&gt;072846531 -->
<g id="edge2" class="edge">
<title>872046531&#45;&gt;072846531</title>
<path fill="none" stroke="orange" d="M487.73,-287.7C487.73,-280.41 487.73,-271.73 487.73,-263.54"/>
<polygon fill="orange" stroke="orange" points="491.23,-263.62 487.73,-253.62 484.23,-263.62 491.23,-263.62"/>
</g>
<!-- 872546031 -->
<g id="node4" class="node">
<title>872546031</title>
<ellipse fill="none" stroke="black" cx="640.73" cy="-234" rx="67.73" ry="18"/>
<text text-anchor="middle" x="640.73" y="-228.95" font-family="Times New Roman,serif" font-size="14.00">872546031(16)</text>
</g>
<!-- 872046531&#45;&gt;872546031 -->
<g id="edge3" class="edge">
<title>872046531&#45;&gt;872546031</title>
<path fill="none" stroke="black" d="M525.94,-287.52C547.64,-277.59 574.88,-265.13 597.38,-254.83"/>
<polygon fill="black" stroke="black" points="598.66,-258.1 606.29,-250.76 595.74,-251.73 598.66,-258.1"/>
</g>
<!-- 872460531 -->
<g id="node5" class="node">
<title>872460531</title>
<ellipse fill="none" stroke="black" cx="67.73" cy="-162" rx="67.73" ry="18"/>
<text text-anchor="middle" x="67.73" y="-156.95" font-family="Times New Roman,serif" font-size="14.00">872460531(17)</text>
</g>
<!-- 872406531&#45;&gt;872460531 -->
<g id="edge4" class="edge">
<title>872406531&#45;&gt;872460531</title>
<path fill="none" stroke="black" d="M220.08,-218.83C190.31,-207.92 148.94,-192.76 116.83,-180.99"/>
<polygon fill="black" stroke="black" points="118.34,-177.82 107.74,-177.67 115.93,-184.39 118.34,-177.82"/>
</g>
<!-- 802476531 -->
<g id="node6" class="node">
<title>802476531</title>
<ellipse fill="none" stroke="black" cx="220.73" cy="-162" rx="67.73" ry="18"/>
<text text-anchor="middle" x="220.73" y="-156.95" font-family="Times New Roman,serif" font-size="14.00">802476531(15)</text>
</g>
<!-- 872406531&#45;&gt;802476531 -->
<g id="edge5" class="edge">
<title>872406531&#45;&gt;802476531</title>
<path fill="none" stroke="black" d="M249.34,-215.7C245.15,-207.98 240.12,-198.71 235.45,-190.11"/>
<polygon fill="black" stroke="black" points="238.58,-188.55 230.74,-181.43 232.43,-191.89 238.58,-188.55"/>
</g>
<!-- 872436501 -->
<g id="node7" class="node">
<title>872436501</title>
<ellipse fill="none" stroke="black" cx="373.73" cy="-162" rx="67.73" ry="18"/>
<text text-anchor="middle" x="373.73" y="-156.95" font-family="Times New Roman,serif" font-size="14.00">872436501(15)</text>
</g>
<!-- 872406531&#45;&gt;872436501 -->
<g id="edge6" class="edge">
<title>872406531&#45;&gt;872436501</title>
<path fill="none" stroke="black" d="M285.11,-216.94C300.74,-207.43 320.77,-195.24 337.82,-184.86"/>
<polygon fill="black" stroke="black" points="339.45,-187.96 346.18,-179.77 335.81,-181.98 339.45,-187.96"/>
</g>
<!-- 702846531 -->
<g id="node8" class="node">
<title>702846531</title>
<ellipse fill="none" stroke="black" cx="526.73" cy="-162" rx="67.73" ry="18"/>
<text text-anchor="middle" x="526.73" y="-156.95" font-family="Times New Roman,serif" font-size="14.00">702846531(15)</text>
</g>
<!-- 072846531&#45;&gt;702846531 -->
<g id="edge7" class="edge">
<title>072846531&#45;&gt;702846531</title>
<path fill="none" stroke="orange" d="M497.37,-215.7C501.67,-207.98 506.83,-198.71 511.62,-190.11"/>
<polygon fill="orange" stroke="orange" points="514.65,-191.87 516.46,-181.43 508.54,-188.46 514.65,-191.87"/>
</g>
<!-- 720846531 -->
<g id="node9" class="node">
<title>720846531</title>
<polygon fill="none" stroke="red" points="508.35,-108 409.1,-108 409.1,-72 508.35,-72 508.35,-108"/>
<text text-anchor="middle" x="458.73" y="-84.95" font-family="Times New Roman,serif" font-size="14.00">720846531(14)</text>
</g>
<!-- 702846531&#45;&gt;720846531 -->
<g id="edge8" class="edge">
<title>702846531&#45;&gt;720846531</title>
<path fill="none" stroke="orange" d="M510.27,-144.05C502.2,-135.75 492.32,-125.58 483.38,-116.38"/>
<polygon fill="orange" stroke="orange" points="486.04,-114.09 476.57,-109.36 481.02,-118.97 486.04,-114.09"/>
</g>
<!-- 742806531 -->
<g id="node10" class="node">
<title>742806531</title>
<ellipse fill="none" stroke="black" cx="593.73" cy="-90" rx="67.73" ry="18"/>
<text text-anchor="middle" x="593.73" y="-84.95" font-family="Times New Roman,serif" font-size="14.00">742806531(16)</text>
</g>
<!-- 702846531&#45;&gt;742806531 -->
<g id="edge9" class="edge">
<title>702846531&#45;&gt;742806531</title>
<path fill="none" stroke="black" d="M542.95,-144.05C551.01,-135.63 560.92,-125.28 569.83,-115.97"/>
<polygon fill="black" stroke="black" points="572.23,-118.53 576.61,-108.88 567.17,-113.69 572.23,-118.53"/>
</g>
<!-- 726840531 -->
<g id="node11" class="node">
<title>726840531</title>
<ellipse fill="none" stroke="black" cx="458.73" cy="-18" rx="67.73" ry="18"/>
<text text-anchor="middle" x="458.73" y="-12.95" font-family="Times New Roman,serif" font-size="14.00">726840531(15)</text>
</g>
<!-- 720846531&#45;&gt;726840531 -->
<g id="edge10" class="edge">
<title>720846531&#45;&gt;726840531</title>
<path fill="none" stroke="black" d="M458.73,-71.7C458.73,-64.41 458.73,-55.73 458.73,-47.54"/>
<polygon fill="black" stroke="black" points="462.23,-47.62 458.73,-37.62 455.23,-47.62 462.23,-47.62"/>
</g>
</g>
</svg>
